<mxfile host="app.diagrams.net" modified="2023-05-23T09:01:18.651Z" agent="Mozilla/5.0 (Windows NT 10.0; Win64; x64) AppleWebKit/537.36 (KHTML, like Gecko) Chrome/113.0.0.0 Safari/537.36 Edg/113.0.1774.50" etag="zPcA9jHXwusZF_Z9rTue" version="21.3.2" type="github">
  <diagram name="第 1 页" id="n30ETD1dtqHuyAHYV6Dz">
    <mxGraphModel dx="1594" dy="895" grid="1" gridSize="10" guides="1" tooltips="1" connect="1" arrows="1" fold="1" page="1" pageScale="1" pageWidth="827" pageHeight="1169" math="0" shadow="0">
      <root>
        <mxCell id="0" />
        <mxCell id="1" parent="0" />
        <mxCell id="qOatC5vS201_eEuQQ-8l-10" style="rounded=0;orthogonalLoop=1;jettySize=auto;html=1;entryX=0;entryY=0.5;entryDx=0;entryDy=0;" edge="1" parent="1" source="qOatC5vS201_eEuQQ-8l-1" target="qOatC5vS201_eEuQQ-8l-2">
          <mxGeometry relative="1" as="geometry" />
        </mxCell>
        <mxCell id="qOatC5vS201_eEuQQ-8l-11" style="rounded=0;orthogonalLoop=1;jettySize=auto;html=1;entryX=-0.003;entryY=0.685;entryDx=0;entryDy=0;entryPerimeter=0;" edge="1" parent="1" source="qOatC5vS201_eEuQQ-8l-1" target="qOatC5vS201_eEuQQ-8l-3">
          <mxGeometry relative="1" as="geometry" />
        </mxCell>
        <mxCell id="qOatC5vS201_eEuQQ-8l-12" style="rounded=0;orthogonalLoop=1;jettySize=auto;html=1;entryX=0;entryY=0.5;entryDx=0;entryDy=0;" edge="1" parent="1" source="qOatC5vS201_eEuQQ-8l-1" target="qOatC5vS201_eEuQQ-8l-4">
          <mxGeometry relative="1" as="geometry" />
        </mxCell>
        <mxCell id="qOatC5vS201_eEuQQ-8l-13" style="rounded=0;orthogonalLoop=1;jettySize=auto;html=1;entryX=0;entryY=0.5;entryDx=0;entryDy=0;" edge="1" parent="1" source="qOatC5vS201_eEuQQ-8l-1" target="qOatC5vS201_eEuQQ-8l-5">
          <mxGeometry relative="1" as="geometry" />
        </mxCell>
        <mxCell id="qOatC5vS201_eEuQQ-8l-14" style="rounded=0;orthogonalLoop=1;jettySize=auto;html=1;entryX=0;entryY=0.5;entryDx=0;entryDy=0;" edge="1" parent="1" source="qOatC5vS201_eEuQQ-8l-1" target="qOatC5vS201_eEuQQ-8l-6">
          <mxGeometry relative="1" as="geometry" />
        </mxCell>
        <mxCell id="qOatC5vS201_eEuQQ-8l-1" value="用户" style="shape=umlActor;verticalLabelPosition=bottom;verticalAlign=top;html=1;" vertex="1" parent="1">
          <mxGeometry x="70" y="420" width="30" height="60" as="geometry" />
        </mxCell>
        <mxCell id="qOatC5vS201_eEuQQ-8l-2" value="账户管理" style="ellipse;whiteSpace=wrap;html=1;fontFamily=Helvetica;" vertex="1" parent="1">
          <mxGeometry x="240" y="200" width="140" height="50" as="geometry" />
        </mxCell>
        <mxCell id="qOatC5vS201_eEuQQ-8l-3" value="摄像头信息查询" style="ellipse;whiteSpace=wrap;html=1;" vertex="1" parent="1">
          <mxGeometry x="240" y="280" width="140" height="50" as="geometry" />
        </mxCell>
        <mxCell id="qOatC5vS201_eEuQQ-8l-4" value="安全隐患处理" style="ellipse;whiteSpace=wrap;html=1;" vertex="1" parent="1">
          <mxGeometry x="240" y="370" width="140" height="50" as="geometry" />
        </mxCell>
        <mxCell id="qOatC5vS201_eEuQQ-8l-5" value="告警邮箱更改" style="ellipse;whiteSpace=wrap;html=1;" vertex="1" parent="1">
          <mxGeometry x="240" y="450" width="140" height="50" as="geometry" />
        </mxCell>
        <mxCell id="qOatC5vS201_eEuQQ-8l-6" value="汇总信息查询" style="ellipse;whiteSpace=wrap;html=1;" vertex="1" parent="1">
          <mxGeometry x="240" y="530" width="140" height="50" as="geometry" />
        </mxCell>
        <mxCell id="qOatC5vS201_eEuQQ-8l-7" value="用户登陆" style="ellipse;whiteSpace=wrap;html=1;fontFamily=Helvetica;" vertex="1" parent="1">
          <mxGeometry x="490" y="170" width="140" height="50" as="geometry" />
        </mxCell>
        <mxCell id="qOatC5vS201_eEuQQ-8l-8" value="用户注册" style="ellipse;whiteSpace=wrap;html=1;fontFamily=Helvetica;" vertex="1" parent="1">
          <mxGeometry x="490" y="230" width="140" height="50" as="geometry" />
        </mxCell>
        <mxCell id="qOatC5vS201_eEuQQ-8l-15" value="包含" style="endArrow=open;endSize=12;dashed=1;html=1;rounded=0;exitX=0.989;exitY=0.374;exitDx=0;exitDy=0;exitPerimeter=0;entryX=0;entryY=0.5;entryDx=0;entryDy=0;" edge="1" parent="1" source="qOatC5vS201_eEuQQ-8l-2" target="qOatC5vS201_eEuQQ-8l-7">
          <mxGeometry width="160" relative="1" as="geometry">
            <mxPoint x="420" y="380" as="sourcePoint" />
            <mxPoint x="480" y="180" as="targetPoint" />
          </mxGeometry>
        </mxCell>
        <mxCell id="qOatC5vS201_eEuQQ-8l-16" value="包含" style="endArrow=open;endSize=12;dashed=1;html=1;rounded=0;entryX=0;entryY=0.5;entryDx=0;entryDy=0;exitX=1;exitY=0.5;exitDx=0;exitDy=0;" edge="1" parent="1" source="qOatC5vS201_eEuQQ-8l-2" target="qOatC5vS201_eEuQQ-8l-8">
          <mxGeometry width="160" relative="1" as="geometry">
            <mxPoint x="380" y="220" as="sourcePoint" />
            <mxPoint x="500" y="205" as="targetPoint" />
          </mxGeometry>
        </mxCell>
      </root>
    </mxGraphModel>
  </diagram>
</mxfile>
